<svg width="370" height="110" viewBox="0 0 370 110" fill="none" xmlns="http://www.w3.org/2000/svg">
<g filter="url(#filter0_b_1267_119)">
<rect width="370" height="110" rx="20" fill="white" fill-opacity="0.8"/>
</g>
<rect x="26" y="30" width="50" height="50" rx="8" fill="#F88C3D"/>
<path d="M64.9285 44.2857H37.0714L51 55.7586L65.086 44.3179C65.0345 44.3028 64.9818 44.2921 64.9285 44.2857Z" fill="white" fill-opacity="0.8"/>
<path d="M51.676 57.9742C51.2813 58.2975 50.7133 58.2975 50.3186 57.9742L36 46.1778V64.6428C36 65.2346 36.4797 65.7143 37.0714 65.7143H64.9285C65.5203 65.7143 66 65.2346 66 64.6428V46.3364L51.676 57.9742Z" fill="white" fill-opacity="0.8"/>
<path d="M106.34 79.18C105.233 79.18 104.22 79.04 103.3 78.76C102.38 78.4667 101.6 78.06 100.96 77.54L101.62 75.9C102.287 76.4067 103 76.7867 103.76 77.04C104.52 77.2933 105.38 77.42 106.34 77.42C107.473 77.42 108.307 77.22 108.84 76.82C109.387 76.4067 109.66 75.8733 109.66 75.22C109.66 74.6867 109.467 74.2667 109.08 73.96C108.693 73.64 108.047 73.3867 107.14 73.2L105 72.76C103.733 72.4933 102.787 72.0533 102.16 71.44C101.547 70.8267 101.24 70 101.24 68.96C101.24 68.12 101.46 67.38 101.9 66.74C102.353 66.1 102.98 65.6067 103.78 65.26C104.58 64.9 105.5 64.72 106.54 64.72C107.5 64.72 108.387 64.8667 109.2 65.16C110.027 65.44 110.727 65.8533 111.3 66.4L110.62 67.98C109.487 66.98 108.12 66.48 106.52 66.48C105.533 66.48 104.747 66.7 104.16 67.14C103.587 67.58 103.3 68.1667 103.3 68.9C103.3 69.46 103.48 69.9067 103.84 70.24C104.2 70.5733 104.8 70.8267 105.64 71L107.76 71.44C109.093 71.72 110.087 72.1533 110.74 72.74C111.393 73.3133 111.72 74.0933 111.72 75.08C111.72 75.9067 111.5 76.6267 111.06 77.24C110.62 77.8533 110 78.3333 109.2 78.68C108.4 79.0133 107.447 79.18 106.34 79.18ZM118.841 79.18C117.241 79.18 115.981 78.7333 115.061 77.84C114.141 76.9333 113.681 75.7 113.681 74.14C113.681 73.14 113.881 72.26 114.281 71.5C114.695 70.7267 115.261 70.1267 115.981 69.7C116.701 69.2733 117.528 69.06 118.461 69.06C119.808 69.06 120.868 69.4933 121.641 70.36C122.415 71.2133 122.801 72.3933 122.801 73.9V74.58H115.641C115.788 76.6067 116.861 77.62 118.861 77.62C119.421 77.62 119.968 77.5333 120.501 77.36C121.048 77.1867 121.561 76.9 122.041 76.5L122.641 77.9C122.201 78.3 121.635 78.6133 120.941 78.84C120.248 79.0667 119.548 79.18 118.841 79.18ZM118.541 70.48C117.701 70.48 117.035 70.74 116.541 71.26C116.048 71.78 115.748 72.4733 115.641 73.34H121.101C121.061 72.4333 120.821 71.7333 120.381 71.24C119.941 70.7333 119.328 70.48 118.541 70.48ZM128.584 79.18C127.517 79.18 126.717 78.88 126.184 78.28C125.664 77.68 125.404 76.8 125.404 75.64V64.9H127.424V75.52C127.424 76.84 127.964 77.5 129.044 77.5C129.204 77.5 129.35 77.4933 129.484 77.48C129.63 77.4667 129.777 77.44 129.924 77.4L129.884 79.02C129.43 79.1267 128.997 79.18 128.584 79.18ZM135.037 79.18C134.357 79.18 133.75 79.0467 133.217 78.78C132.684 78.5133 132.257 78.1533 131.937 77.7C131.63 77.2467 131.477 76.7333 131.477 76.16C131.477 75.44 131.657 74.8733 132.017 74.46C132.39 74.0467 132.997 73.7467 133.837 73.56C134.69 73.3733 135.837 73.28 137.277 73.28H137.957V72.76C137.957 72 137.797 71.4533 137.477 71.12C137.157 70.7867 136.63 70.62 135.897 70.62C135.337 70.62 134.777 70.7067 134.217 70.88C133.657 71.04 133.084 71.3 132.497 71.66L131.877 70.24C132.384 69.88 133.017 69.5933 133.777 69.38C134.537 69.1667 135.264 69.06 135.957 69.06C137.29 69.06 138.277 69.38 138.917 70.02C139.557 70.6467 139.877 71.6333 139.877 72.98V79H137.977V77.38C137.737 77.94 137.364 78.38 136.857 78.7C136.35 79.02 135.744 79.18 135.037 79.18ZM135.437 77.74C136.157 77.74 136.757 77.4867 137.237 76.98C137.717 76.4733 137.957 75.8333 137.957 75.06V74.52H137.297C136.324 74.52 135.557 74.5667 134.997 74.66C134.45 74.7533 134.057 74.9133 133.817 75.14C133.59 75.3533 133.477 75.6533 133.477 76.04C133.477 76.5467 133.65 76.96 133.997 77.28C134.344 77.5867 134.824 77.74 135.437 77.74ZM143.099 79V69.24H145.059V70.82C145.352 70.26 145.759 69.8267 146.279 69.52C146.799 69.2133 147.406 69.06 148.099 69.06C149.592 69.06 150.559 69.7133 150.999 71.02C151.306 70.4067 151.746 69.9267 152.319 69.58C152.892 69.2333 153.546 69.06 154.279 69.06C156.466 69.06 157.559 70.3667 157.559 72.98V79H155.539V73.08C155.539 72.2533 155.392 71.6467 155.099 71.26C154.819 70.8733 154.352 70.68 153.699 70.68C152.966 70.68 152.386 70.94 151.959 71.46C151.532 71.9667 151.319 72.66 151.319 73.54V79H149.299V73.08C149.299 72.2533 149.159 71.6467 148.879 71.26C148.599 70.8733 148.132 70.68 147.479 70.68C146.746 70.68 146.166 70.94 145.739 71.46C145.326 71.9667 145.119 72.66 145.119 73.54V79H143.099ZM163.903 79.18C163.223 79.18 162.617 79.0467 162.083 78.78C161.55 78.5133 161.123 78.1533 160.803 77.7C160.497 77.2467 160.343 76.7333 160.343 76.16C160.343 75.44 160.523 74.8733 160.883 74.46C161.257 74.0467 161.863 73.7467 162.703 73.56C163.557 73.3733 164.703 73.28 166.143 73.28H166.823V72.76C166.823 72 166.663 71.4533 166.343 71.12C166.023 70.7867 165.497 70.62 164.763 70.62C164.203 70.62 163.643 70.7067 163.083 70.88C162.523 71.04 161.95 71.3 161.363 71.66L160.743 70.24C161.25 69.88 161.883 69.5933 162.643 69.38C163.403 69.1667 164.13 69.06 164.823 69.06C166.157 69.06 167.143 69.38 167.783 70.02C168.423 70.6467 168.743 71.6333 168.743 72.98V79H166.843V77.38C166.603 77.94 166.23 78.38 165.723 78.7C165.217 79.02 164.61 79.18 163.903 79.18ZM164.303 77.74C165.023 77.74 165.623 77.4867 166.103 76.98C166.583 76.4733 166.823 75.8333 166.823 75.06V74.52H166.163C165.19 74.52 164.423 74.5667 163.863 74.66C163.317 74.7533 162.923 74.9133 162.683 75.14C162.457 75.3533 162.343 75.6533 162.343 76.04C162.343 76.5467 162.517 76.96 162.863 77.28C163.21 77.5867 163.69 77.74 164.303 77.74ZM176.085 79.18C174.859 79.18 173.945 78.8667 173.345 78.24C172.745 77.6133 172.445 76.7067 172.445 75.52V70.8H170.545V69.24H172.445V66.3H174.465V69.24H177.485V70.8H174.465V75.36C174.465 76.0667 174.612 76.6 174.905 76.96C175.212 77.32 175.705 77.5 176.385 77.5C176.599 77.5 176.805 77.48 177.005 77.44C177.205 77.3867 177.405 77.3267 177.605 77.26L177.925 78.78C177.725 78.9 177.445 78.9933 177.085 79.06C176.739 79.14 176.405 79.18 176.085 79.18ZM185.504 79V64.9H190.484C192.804 64.9 194.591 65.5067 195.844 66.72C197.111 67.9333 197.744 69.6733 197.744 71.94C197.744 74.2067 197.111 75.9533 195.844 77.18C194.591 78.3933 192.804 79 190.484 79H185.504ZM187.584 77.26H190.364C193.844 77.26 195.584 75.4867 195.584 71.94C195.584 68.4067 193.844 66.64 190.364 66.64H187.584V77.26ZM203.824 79.18C203.144 79.18 202.537 79.0467 202.004 78.78C201.47 78.5133 201.044 78.1533 200.724 77.7C200.417 77.2467 200.264 76.7333 200.264 76.16C200.264 75.44 200.444 74.8733 200.804 74.46C201.177 74.0467 201.784 73.7467 202.624 73.56C203.477 73.3733 204.624 73.28 206.064 73.28H206.744V72.76C206.744 72 206.584 71.4533 206.264 71.12C205.944 70.7867 205.417 70.62 204.684 70.62C204.124 70.62 203.564 70.7067 203.004 70.88C202.444 71.04 201.87 71.3 201.284 71.66L200.664 70.24C201.17 69.88 201.804 69.5933 202.564 69.38C203.324 69.1667 204.05 69.06 204.744 69.06C206.077 69.06 207.064 69.38 207.704 70.02C208.344 70.6467 208.664 71.6333 208.664 72.98V79H206.764V77.38C206.524 77.94 206.15 78.38 205.644 78.7C205.137 79.02 204.53 79.18 203.824 79.18ZM204.224 77.74C204.944 77.74 205.544 77.4867 206.024 76.98C206.504 76.4733 206.744 75.8333 206.744 75.06V74.52H206.084C205.11 74.52 204.344 74.5667 203.784 74.66C203.237 74.7533 202.844 74.9133 202.604 75.14C202.377 75.3533 202.264 75.6533 202.264 76.04C202.264 76.5467 202.437 76.96 202.784 77.28C203.13 77.5867 203.61 77.74 204.224 77.74ZM216.006 79.18C214.779 79.18 213.866 78.8667 213.266 78.24C212.666 77.6133 212.366 76.7067 212.366 75.52V70.8H210.466V69.24H212.366V66.3H214.386V69.24H217.406V70.8H214.386V75.36C214.386 76.0667 214.532 76.6 214.826 76.96C215.132 77.32 215.626 77.5 216.306 77.5C216.519 77.5 216.726 77.48 216.926 77.44C217.126 77.3867 217.326 77.3267 217.526 77.26L217.846 78.78C217.646 78.9 217.366 78.9933 217.006 79.06C216.659 79.14 216.326 79.18 216.006 79.18ZM222.67 79.18C221.99 79.18 221.384 79.0467 220.85 78.78C220.317 78.5133 219.89 78.1533 219.57 77.7C219.264 77.2467 219.11 76.7333 219.11 76.16C219.11 75.44 219.29 74.8733 219.65 74.46C220.024 74.0467 220.63 73.7467 221.47 73.56C222.324 73.3733 223.47 73.28 224.91 73.28H225.59V72.76C225.59 72 225.43 71.4533 225.11 71.12C224.79 70.7867 224.264 70.62 223.53 70.62C222.97 70.62 222.41 70.7067 221.85 70.88C221.29 71.04 220.717 71.3 220.13 71.66L219.51 70.24C220.017 69.88 220.65 69.5933 221.41 69.38C222.17 69.1667 222.897 69.06 223.59 69.06C224.924 69.06 225.91 69.38 226.55 70.02C227.19 70.6467 227.51 71.6333 227.51 72.98V79H225.61V77.38C225.37 77.94 224.997 78.38 224.49 78.7C223.984 79.02 223.377 79.18 222.67 79.18ZM223.07 77.74C223.79 77.74 224.39 77.4867 224.87 76.98C225.35 76.4733 225.59 75.8333 225.59 75.06V74.52H224.93C223.957 74.52 223.19 74.5667 222.63 74.66C222.084 74.7533 221.69 74.9133 221.45 75.14C221.224 75.3533 221.11 75.6533 221.11 76.04C221.11 76.5467 221.284 76.96 221.63 77.28C221.977 77.5867 222.457 77.74 223.07 77.74ZM230.693 79V69.24H232.653V70.86C232.986 70.2733 233.439 69.8267 234.013 69.52C234.599 69.2133 235.253 69.06 235.973 69.06C238.279 69.06 239.433 70.3667 239.433 72.98V79H237.413V73.1C237.413 72.26 237.246 71.6467 236.913 71.26C236.593 70.8733 236.086 70.68 235.393 70.68C234.579 70.68 233.926 70.94 233.433 71.46C232.953 71.9667 232.713 72.64 232.713 73.48V79H230.693ZM247.036 82.78C246.156 82.78 245.336 82.6733 244.576 82.46C243.816 82.26 243.143 81.94 242.556 81.5L243.176 80.06C243.763 80.46 244.363 80.7533 244.976 80.94C245.589 81.1267 246.229 81.22 246.896 81.22C248.763 81.22 249.696 80.2867 249.696 78.42V76.88C249.416 77.4667 248.976 77.9267 248.376 78.26C247.789 78.5933 247.129 78.76 246.396 78.76C245.516 78.76 244.749 78.56 244.096 78.16C243.443 77.7467 242.936 77.18 242.576 76.46C242.216 75.7267 242.036 74.8733 242.036 73.9C242.036 72.94 242.216 72.1 242.576 71.38C242.936 70.6467 243.443 70.08 244.096 69.68C244.749 69.2667 245.516 69.06 246.396 69.06C247.143 69.06 247.809 69.2267 248.396 69.56C248.983 69.8933 249.416 70.3533 249.696 70.94V69.24H251.656V78.18C251.656 79.7133 251.263 80.86 250.476 81.62C249.689 82.3933 248.543 82.78 247.036 82.78ZM246.876 77.18C247.729 77.18 248.409 76.8867 248.916 76.3C249.423 75.7133 249.676 74.9133 249.676 73.9C249.676 72.8867 249.423 72.0933 248.916 71.52C248.409 70.9333 247.729 70.64 246.876 70.64C246.023 70.64 245.343 70.9333 244.836 71.52C244.329 72.0933 244.076 72.8867 244.076 73.9C244.076 74.9133 244.329 75.7133 244.836 76.3C245.343 76.8867 246.023 77.18 246.876 77.18ZM255.231 75.1L254.591 64.9H257.091L256.471 75.1H255.231ZM254.651 79V76.62H257.031V79H254.651Z" fill="#545567"/>
<path d="M101.848 49V32.08H104.92V39.136H113.632V32.08H116.704V49H113.632V41.704H104.92V49H101.848ZM128.474 49.24C126.842 49.24 125.41 48.88 124.178 48.16C122.962 47.44 122.018 46.432 121.346 45.136C120.674 43.824 120.338 42.288 120.338 40.528C120.338 38.752 120.674 37.216 121.346 35.92C122.018 34.624 122.962 33.624 124.178 32.92C125.395 32.2 126.826 31.84 128.474 31.84C130.122 31.84 131.555 32.2 132.771 32.92C133.986 33.624 134.931 34.624 135.603 35.92C136.275 37.216 136.611 38.744 136.611 40.504C136.611 42.28 136.275 43.824 135.603 45.136C134.931 46.432 133.986 47.44 132.771 48.16C131.555 48.88 130.122 49.24 128.474 49.24ZM128.474 46.6C130.026 46.6 131.234 46.064 132.099 44.992C132.963 43.92 133.395 42.432 133.395 40.528C133.395 38.608 132.963 37.12 132.099 36.064C131.251 35.008 130.043 34.48 128.474 34.48C126.922 34.48 125.714 35.008 124.85 36.064C123.986 37.12 123.554 38.608 123.554 40.528C123.554 42.432 123.986 43.92 124.85 44.992C125.714 46.064 126.922 46.6 128.474 46.6ZM140.214 49V32.08H147.558C149.414 32.08 150.846 32.528 151.854 33.424C152.862 34.304 153.366 35.544 153.366 37.144C153.366 38.408 153.038 39.456 152.382 40.288C151.726 41.104 150.782 41.656 149.55 41.944C150.366 42.2 151.038 42.816 151.566 43.792L154.398 49H151.014L148.086 43.6C147.798 43.072 147.454 42.712 147.054 42.52C146.67 42.328 146.174 42.232 145.566 42.232H143.286V49H140.214ZM143.286 39.952H147.03C149.27 39.952 150.39 39.04 150.39 37.216C150.39 35.408 149.27 34.504 147.03 34.504H143.286V39.952ZM155.019 49L162.675 32.08H165.195L172.851 49H169.731L168.051 45.088H159.795L158.139 49H155.019ZM163.899 35.416L160.851 42.64H166.995L163.947 35.416H163.899ZM180.827 49.24C179.499 49.24 178.267 49.072 177.131 48.736C175.995 48.384 175.035 47.912 174.251 47.32L175.187 44.896C175.971 45.456 176.827 45.888 177.755 46.192C178.699 46.496 179.723 46.648 180.827 46.648C182.091 46.648 183.011 46.44 183.587 46.024C184.163 45.592 184.451 45.04 184.451 44.368C184.451 43.808 184.243 43.368 183.827 43.048C183.427 42.728 182.731 42.464 181.739 42.256L179.099 41.704C176.091 41.064 174.587 39.52 174.587 37.072C174.587 36.016 174.867 35.096 175.427 34.312C175.987 33.528 176.763 32.92 177.755 32.488C178.747 32.056 179.891 31.84 181.187 31.84C182.339 31.84 183.419 32.016 184.427 32.368C185.435 32.704 186.275 33.184 186.947 33.808L186.011 36.112C184.683 34.992 183.067 34.432 181.163 34.432C180.059 34.432 179.195 34.664 178.571 35.128C177.947 35.592 177.635 36.2 177.635 36.952C177.635 37.528 177.827 37.992 178.211 38.344C178.595 38.68 179.251 38.944 180.179 39.136L182.795 39.688C184.379 40.024 185.555 40.552 186.323 41.272C187.107 41.992 187.499 42.952 187.499 44.152C187.499 45.16 187.227 46.048 186.683 46.816C186.139 47.584 185.363 48.184 184.355 48.616C183.363 49.032 182.187 49.24 180.827 49.24ZM196.447 49.24C195.119 49.24 193.887 49.072 192.751 48.736C191.615 48.384 190.655 47.912 189.871 47.32L190.807 44.896C191.591 45.456 192.447 45.888 193.375 46.192C194.319 46.496 195.343 46.648 196.447 46.648C197.711 46.648 198.631 46.44 199.207 46.024C199.783 45.592 200.071 45.04 200.071 44.368C200.071 43.808 199.863 43.368 199.447 43.048C199.047 42.728 198.351 42.464 197.359 42.256L194.719 41.704C191.711 41.064 190.207 39.52 190.207 37.072C190.207 36.016 190.487 35.096 191.047 34.312C191.607 33.528 192.383 32.92 193.375 32.488C194.367 32.056 195.511 31.84 196.807 31.84C197.959 31.84 199.039 32.016 200.047 32.368C201.055 32.704 201.895 33.184 202.567 33.808L201.631 36.112C200.303 34.992 198.687 34.432 196.783 34.432C195.679 34.432 194.815 34.664 194.191 35.128C193.567 35.592 193.255 36.2 193.255 36.952C193.255 37.528 193.447 37.992 193.831 38.344C194.215 38.68 194.871 38.944 195.799 39.136L198.415 39.688C199.999 40.024 201.175 40.552 201.943 41.272C202.727 41.992 203.119 42.952 203.119 44.152C203.119 45.16 202.847 46.048 202.303 46.816C201.759 47.584 200.983 48.184 199.975 48.616C198.983 49.032 197.807 49.24 196.447 49.24ZM206.452 43.984L205.516 32.08H209.212L208.276 43.984H206.452ZM205.684 49V45.664H209.044V49H205.684Z" fill="#595959"/>
<defs>
<filter id="filter0_b_1267_119" x="-20" y="-20" width="410" height="150" filterUnits="userSpaceOnUse" color-interpolation-filters="sRGB">
<feFlood flood-opacity="0" result="BackgroundImageFix"/>
<feGaussianBlur in="BackgroundImage" stdDeviation="10"/>
<feComposite in2="SourceAlpha" operator="in" result="effect1_backgroundBlur_1267_119"/>
<feBlend mode="normal" in="SourceGraphic" in2="effect1_backgroundBlur_1267_119" result="shape"/>
</filter>
</defs>
</svg>
